%TF.GenerationSoftware,KiCad,Pcbnew,4.0.7*%
%TF.CreationDate,2018-04-08T16:57:24+02:00*%
%TF.ProjectId,HDMI to CSI,48444D4920746F204353492E6B696361,rev?*%
%TF.FileFunction,Soldermask,Top*%
%FSLAX46Y46*%
G04 Gerber Fmt 4.6, Leading zero omitted, Abs format (unit mm)*
G04 Created by KiCad (PCBNEW 4.0.7) date 04/08/18 16:57:24*
%MOMM*%
%LPD*%
G01*
G04 APERTURE LIST*
%ADD10C,0.150000*%
%ADD11R,0.900000X1.000000*%
%ADD12R,2.400000X1.010000*%
%ADD13R,4.000000X3.080000*%
%ADD14R,2.400000X2.100000*%
%ADD15R,1.780000X2.200000*%
%ADD16R,1.250000X0.630000*%
%ADD17R,1.400000X0.630000*%
G04 APERTURE END LIST*
D10*
X152500000Y-104500000D02*
X140000000Y-112500000D01*
X152500000Y-95500000D02*
X152500000Y-104500000D01*
X140000000Y-87500000D02*
X152500000Y-95500000D01*
X127000000Y-87500000D02*
X140000000Y-87500000D01*
X127000000Y-112500000D02*
X140000000Y-112500000D01*
X127000000Y-87500000D02*
X127000000Y-112500000D01*
D11*
X138875000Y-106975000D03*
X138875000Y-108075000D03*
X142425000Y-102725000D03*
X142425000Y-101625000D03*
X143725000Y-97800000D03*
X143725000Y-96700000D03*
D12*
X136800000Y-93000000D03*
X136800000Y-94000000D03*
X136800000Y-95000000D03*
X136800000Y-96000000D03*
X136800000Y-97000000D03*
X136800000Y-98000000D03*
X136800000Y-99000000D03*
X136800000Y-100000000D03*
X136800000Y-101000000D03*
X136800000Y-102000000D03*
X136800000Y-103000000D03*
X136800000Y-104000000D03*
X136800000Y-105000000D03*
X136800000Y-106000000D03*
X136800000Y-107000000D03*
D13*
X134000000Y-90010000D03*
X134000000Y-109990000D03*
D14*
X150000000Y-102850000D03*
X150000000Y-97150000D03*
D15*
X146640000Y-102850000D03*
X146640000Y-97150000D03*
D16*
X145225000Y-98200000D03*
X145225000Y-98600000D03*
X145225000Y-99000000D03*
X145225000Y-99400000D03*
X145225000Y-99800000D03*
X145225000Y-100200000D03*
X145225000Y-100600000D03*
X145225000Y-101000000D03*
X145225000Y-101400000D03*
X145225000Y-101800000D03*
D17*
X146450000Y-98400000D03*
X146450000Y-98800000D03*
X146450000Y-99200000D03*
X146450000Y-99600000D03*
X146450000Y-100000000D03*
X146450000Y-100400000D03*
X146450000Y-100800000D03*
X146450000Y-101200000D03*
X146450000Y-101600000D03*
M02*
