%TF.GenerationSoftware,KiCad,Pcbnew,4.0.7*%
%TF.CreationDate,2018-04-08T16:57:24+02:00*%
%TF.ProjectId,HDMI to CSI,48444D4920746F204353492E6B696361,rev?*%
%TF.FileFunction,Copper,L1,Top,Signal*%
%FSLAX46Y46*%
G04 Gerber Fmt 4.6, Leading zero omitted, Abs format (unit mm)*
G04 Created by KiCad (PCBNEW 4.0.7) date 04/08/18 16:57:24*
%MOMM*%
%LPD*%
G01*
G04 APERTURE LIST*
%ADD10C,0.150000*%
%ADD11R,0.500000X0.600000*%
%ADD12R,2.000000X0.610000*%
%ADD13R,3.600000X2.680000*%
%ADD14R,2.000000X1.700000*%
%ADD15R,1.380000X1.800000*%
%ADD16R,0.850000X0.230000*%
%ADD17R,1.000000X0.230000*%
%ADD18C,0.600000*%
%ADD19C,0.254000*%
%ADD20C,0.200000*%
%ADD21C,0.127000*%
G04 APERTURE END LIST*
D10*
X152500000Y-104500000D02*
X140000000Y-112500000D01*
X152500000Y-95500000D02*
X152500000Y-104500000D01*
X140000000Y-87500000D02*
X152500000Y-95500000D01*
X127000000Y-87500000D02*
X140000000Y-87500000D01*
X127000000Y-112500000D02*
X140000000Y-112500000D01*
X127000000Y-87500000D02*
X127000000Y-112500000D01*
D11*
X138875000Y-106975000D03*
X138875000Y-108075000D03*
X142425000Y-102725000D03*
X142425000Y-101625000D03*
X143725000Y-97800000D03*
X143725000Y-96700000D03*
D12*
X136800000Y-93000000D03*
X136800000Y-94000000D03*
X136800000Y-95000000D03*
X136800000Y-96000000D03*
X136800000Y-97000000D03*
X136800000Y-98000000D03*
X136800000Y-99000000D03*
X136800000Y-100000000D03*
X136800000Y-101000000D03*
X136800000Y-102000000D03*
X136800000Y-103000000D03*
X136800000Y-104000000D03*
X136800000Y-105000000D03*
X136800000Y-106000000D03*
X136800000Y-107000000D03*
D13*
X134000000Y-90010000D03*
X134000000Y-109990000D03*
D14*
X150000000Y-102850000D03*
X150000000Y-97150000D03*
D15*
X146640000Y-102850000D03*
X146640000Y-97150000D03*
D16*
X145225000Y-98200000D03*
X145225000Y-98600000D03*
X145225000Y-99000000D03*
X145225000Y-99400000D03*
X145225000Y-99800000D03*
X145225000Y-100200000D03*
X145225000Y-100600000D03*
X145225000Y-101000000D03*
X145225000Y-101400000D03*
X145225000Y-101800000D03*
D17*
X146450000Y-98400000D03*
X146450000Y-98800000D03*
X146450000Y-99200000D03*
X146450000Y-99600000D03*
X146450000Y-100000000D03*
X146450000Y-100400000D03*
X146450000Y-100800000D03*
X146450000Y-101200000D03*
X146450000Y-101600000D03*
D18*
X140025000Y-107475000D03*
X140075000Y-105625000D03*
X142050000Y-103450000D03*
X144225000Y-103350000D03*
X142900000Y-97825000D03*
X135000000Y-93000000D03*
X148850000Y-99850000D03*
X135225000Y-99000000D03*
X139950000Y-98825000D03*
X148042158Y-100142158D03*
X139035654Y-100364518D03*
X148607842Y-100707842D03*
X138469970Y-100930202D03*
X147751166Y-98671068D03*
X138675000Y-102775000D03*
X148289673Y-99159490D03*
X138650000Y-103975000D03*
X147973863Y-101740510D03*
X138575000Y-105950000D03*
D19*
X140025000Y-107475000D02*
X138875000Y-107475000D01*
X138875000Y-107475000D02*
X137275000Y-107475000D01*
X138875000Y-106975000D02*
X138875000Y-107475000D01*
X140025000Y-107475000D02*
X139375000Y-107475000D01*
X137275000Y-107475000D02*
X136800000Y-107000000D01*
X138875000Y-106975000D02*
X138875000Y-106825000D01*
X138875000Y-106825000D02*
X140075000Y-105625000D01*
X143450001Y-103649999D02*
X140125000Y-106975000D01*
X140125000Y-106975000D02*
X138875000Y-106975000D01*
X144225000Y-103350000D02*
X143925001Y-103649999D01*
X143925001Y-103649999D02*
X143450001Y-103649999D01*
X136800000Y-107000000D02*
X138850000Y-107000000D01*
X138850000Y-107000000D02*
X138875000Y-106975000D01*
X142425000Y-102725000D02*
X142425000Y-103075000D01*
X142425000Y-103075000D02*
X142050000Y-103450000D01*
X144225000Y-103169000D02*
X144225000Y-103350000D01*
X145225000Y-101800000D02*
X145225000Y-102169000D01*
X145225000Y-102169000D02*
X144225000Y-103169000D01*
X143725000Y-97800000D02*
X142925000Y-97800000D01*
X142925000Y-97800000D02*
X142900000Y-97825000D01*
X142425000Y-102725000D02*
X142875000Y-102725000D01*
D20*
X143725000Y-97800000D02*
X144825000Y-97800000D01*
X144825000Y-97800000D02*
X145225000Y-98200000D01*
X146450000Y-98400000D02*
X145973602Y-98400000D01*
X145973602Y-98400000D02*
X145773602Y-98200000D01*
X145773602Y-98200000D02*
X145225000Y-98200000D01*
X145225000Y-101000000D02*
X144600000Y-101000000D01*
X144600000Y-101000000D02*
X142875000Y-102725000D01*
X136800000Y-93000000D02*
X135000000Y-93000000D01*
X136800000Y-102000000D02*
X137900000Y-102000000D01*
X142425000Y-101625000D02*
X138275000Y-101625000D01*
X138275000Y-101625000D02*
X137900000Y-102000000D01*
X145225000Y-100600000D02*
X144200000Y-100600000D01*
X144200000Y-100600000D02*
X143175000Y-101625000D01*
X143175000Y-101625000D02*
X142425000Y-101625000D01*
D19*
X146640000Y-97150000D02*
X147584000Y-97150000D01*
X147584000Y-97150000D02*
X150000000Y-97150000D01*
X148850000Y-99850000D02*
X148850000Y-98300000D01*
X148850000Y-98300000D02*
X150000000Y-97150000D01*
X149450000Y-100025736D02*
X149450000Y-101150000D01*
X149450000Y-101150000D02*
X148725000Y-101875000D01*
X148850000Y-99850000D02*
X149274264Y-99850000D01*
X149274264Y-99850000D02*
X149450000Y-100025736D01*
X136800000Y-96000000D02*
X135546000Y-96000000D01*
X135546000Y-96000000D02*
X134996000Y-95450000D01*
X134996000Y-95450000D02*
X134900000Y-95450000D01*
X136800000Y-93000000D02*
X135546000Y-93000000D01*
X135546000Y-93000000D02*
X134900000Y-93646000D01*
X134900000Y-93646000D02*
X134900000Y-93700000D01*
X134875000Y-102350000D02*
X134875000Y-102100000D01*
X134875000Y-103230000D02*
X134875000Y-102350000D01*
X134875000Y-102350000D02*
X134875000Y-94230000D01*
X134875000Y-94230000D02*
X134900000Y-94205000D01*
X134900000Y-94205000D02*
X134900000Y-93700000D01*
D20*
X134875000Y-101275000D02*
X134875000Y-101175000D01*
X134875000Y-101175000D02*
X134875000Y-99425000D01*
D19*
X136800000Y-102000000D02*
X135546000Y-102000000D01*
X135546000Y-102000000D02*
X134875000Y-101329000D01*
X134875000Y-101329000D02*
X134875000Y-101175000D01*
D20*
X134875000Y-102100000D02*
X134875000Y-101275000D01*
D19*
X134875000Y-106788602D02*
X134875000Y-103230000D01*
X138875000Y-108075000D02*
X136161398Y-108075000D01*
X136161398Y-108075000D02*
X134875000Y-106788602D01*
D20*
X142425000Y-101625000D02*
X142550000Y-101625000D01*
D19*
X142550000Y-101500000D02*
X142425000Y-101625000D01*
D21*
X147427000Y-99650000D02*
X148650000Y-99650000D01*
D20*
X147150000Y-98800000D02*
X147224164Y-98725836D01*
X146450000Y-98800000D02*
X147150000Y-98800000D01*
X147224164Y-98725836D02*
X147224164Y-97734164D01*
X147224164Y-97734164D02*
X146640000Y-97150000D01*
D21*
X148650000Y-99650000D02*
X148850000Y-99850000D01*
X146450000Y-100000000D02*
X147077000Y-100000000D01*
X147077000Y-100000000D02*
X147427000Y-99650000D01*
D20*
X138000000Y-93000000D02*
X141500000Y-96500000D01*
X143725000Y-96700000D02*
X141700000Y-96700000D01*
X141700000Y-96700000D02*
X141500000Y-96500000D01*
X143725000Y-96700000D02*
X145300000Y-96700000D01*
X145300000Y-96700000D02*
X145750000Y-97150000D01*
X150000000Y-102850000D02*
X148800000Y-102850000D01*
X148800000Y-102850000D02*
X147750000Y-102850000D01*
X146450000Y-101200000D02*
X147150000Y-101200000D01*
X147150000Y-101200000D02*
X147250000Y-101100000D01*
X148725000Y-101650000D02*
X148725000Y-101875000D01*
X147250000Y-101100000D02*
X148175000Y-101100000D01*
X148175000Y-101100000D02*
X148725000Y-101650000D01*
X148725000Y-101875000D02*
X147750000Y-102850000D01*
X147750000Y-102850000D02*
X146640000Y-102850000D01*
X134875000Y-99425000D02*
X134875000Y-98275000D01*
X134875000Y-99425000D02*
X134875000Y-99350000D01*
X134875000Y-99350000D02*
X135225000Y-99000000D01*
X144600000Y-99400000D02*
X140525000Y-99400000D01*
X140525000Y-99400000D02*
X139950000Y-98825000D01*
X145225000Y-99400000D02*
X144600000Y-99400000D01*
X134900000Y-95450000D02*
X134900000Y-97205000D01*
X134900000Y-97205000D02*
X134875000Y-97230000D01*
X136800000Y-102000000D02*
X135600000Y-102000000D01*
X135600000Y-102000000D02*
X134875000Y-101275000D01*
X134875000Y-97230000D02*
X134875000Y-97625000D01*
X134875000Y-97625000D02*
X134875000Y-97770000D01*
X136800000Y-99000000D02*
X135600000Y-99000000D01*
X135600000Y-99000000D02*
X134875000Y-98275000D01*
X134875000Y-98275000D02*
X134875000Y-97625000D01*
X136800000Y-96000000D02*
X136105000Y-96000000D01*
X136105000Y-96000000D02*
X134875000Y-97230000D01*
X134900000Y-93700000D02*
X134900000Y-95450000D01*
X136800000Y-93000000D02*
X138000000Y-93000000D01*
X145750000Y-97150000D02*
X146640000Y-97150000D01*
X146325000Y-103165000D02*
X146640000Y-102850000D01*
D21*
X141596204Y-98609500D02*
X144578000Y-98609500D01*
X137304499Y-94504499D02*
X137952401Y-94504499D01*
X136800000Y-94000000D02*
X137304499Y-94504499D01*
X137952401Y-94504499D02*
X138110213Y-94662311D01*
X138110213Y-94662311D02*
X138110213Y-95123509D01*
X138110213Y-95123509D02*
X141596204Y-98609500D01*
X144578000Y-98609500D02*
X144587500Y-98600000D01*
X144587500Y-98600000D02*
X145225000Y-98600000D01*
X136800000Y-95000000D02*
X137261185Y-95000000D01*
X137261185Y-95000000D02*
X137765684Y-95504499D01*
X137765684Y-95504499D02*
X137952401Y-95504499D01*
X137952401Y-95504499D02*
X141438402Y-98990500D01*
X141438402Y-98990500D02*
X144578000Y-98990500D01*
X144578000Y-98990500D02*
X144587500Y-99000000D01*
X144587500Y-99000000D02*
X145225000Y-99000000D01*
X144578000Y-99809500D02*
X144587500Y-99800000D01*
X137304499Y-97504499D02*
X137952401Y-97504499D01*
X136800000Y-97000000D02*
X137304499Y-97504499D01*
X144587500Y-99800000D02*
X145225000Y-99800000D01*
X137952401Y-97504499D02*
X138110213Y-97662311D01*
X138110213Y-97662311D02*
X138110213Y-98123509D01*
X138110213Y-98123509D02*
X139796204Y-99809500D01*
X139796204Y-99809500D02*
X144578000Y-99809500D01*
X136800000Y-98000000D02*
X137261185Y-98000000D01*
X137261185Y-98000000D02*
X137765684Y-98504499D01*
X144587500Y-100200000D02*
X145225000Y-100200000D01*
X137765684Y-98504499D02*
X137952401Y-98504499D01*
X137952401Y-98504499D02*
X139638402Y-100190500D01*
X139638402Y-100190500D02*
X144578000Y-100190500D01*
X144578000Y-100190500D02*
X144587500Y-100200000D01*
X148042158Y-100142158D02*
X148209389Y-100309389D01*
X148209389Y-100309389D02*
X148082278Y-100436500D01*
X148082278Y-100436500D02*
X147236500Y-100436500D01*
X147236500Y-100436500D02*
X147200000Y-100400000D01*
X147200000Y-100400000D02*
X146450000Y-100400000D01*
X136800000Y-100000000D02*
X138336675Y-100000000D01*
X138336675Y-100000000D02*
X138701193Y-100364518D01*
X138701193Y-100364518D02*
X139035654Y-100364518D01*
X148607842Y-100707842D02*
X148440611Y-100540611D01*
X148440611Y-100540611D02*
X148217722Y-100763500D01*
X148217722Y-100763500D02*
X147236500Y-100763500D01*
X147236500Y-100763500D02*
X147200000Y-100800000D01*
X147200000Y-100800000D02*
X146450000Y-100800000D01*
X138469970Y-100595741D02*
X138469970Y-100930202D01*
X136800000Y-101000000D02*
X137304499Y-100495501D01*
X137304499Y-100495501D02*
X137952401Y-100495501D01*
X137952401Y-100495501D02*
X137990501Y-100457401D01*
X137990501Y-100457401D02*
X137990501Y-100326999D01*
X137990501Y-100326999D02*
X138201228Y-100326999D01*
X138201228Y-100326999D02*
X138469970Y-100595741D01*
X147266572Y-99091978D02*
X147330256Y-99091978D01*
X146450000Y-99200000D02*
X147158550Y-99200000D01*
X147330256Y-99091978D02*
X147451167Y-98971067D01*
X147451167Y-98971067D02*
X147751166Y-98671068D01*
X147158550Y-99200000D02*
X147266572Y-99091978D01*
X136800000Y-103000000D02*
X138450000Y-103000000D01*
X138450000Y-103000000D02*
X138675000Y-102775000D01*
X147371786Y-99345989D02*
X147678910Y-99345989D01*
X147678910Y-99345989D02*
X147865409Y-99159490D01*
X147865409Y-99159490D02*
X148289673Y-99159490D01*
X147117775Y-99600000D02*
X147371786Y-99345989D01*
X146450000Y-99600000D02*
X147117775Y-99600000D01*
X138650000Y-103975000D02*
X136825000Y-103975000D01*
X136825000Y-103975000D02*
X136800000Y-104000000D01*
X137927000Y-105000000D02*
X136800000Y-105000000D01*
X141475944Y-105000000D02*
X137927000Y-105000000D01*
X143290502Y-102782498D02*
X143290502Y-103185442D01*
X144673000Y-101400000D02*
X143290502Y-102782498D01*
X145225000Y-101400000D02*
X144673000Y-101400000D01*
X143290502Y-103185442D02*
X141475944Y-105000000D01*
X147833353Y-101600000D02*
X147973863Y-101740510D01*
X146450000Y-101600000D02*
X147833353Y-101600000D01*
X137927000Y-106000000D02*
X138525000Y-106000000D01*
X138525000Y-106000000D02*
X138575000Y-105950000D01*
X136800000Y-106000000D02*
X137927000Y-106000000D01*
D19*
G36*
X152044000Y-95749554D02*
X152044000Y-104250446D01*
X139866573Y-112044000D01*
X127456000Y-112044000D01*
X127456000Y-108650000D01*
X131811536Y-108650000D01*
X131811536Y-111330000D01*
X131838103Y-111471190D01*
X131921546Y-111600865D01*
X132048866Y-111687859D01*
X132200000Y-111718464D01*
X135800000Y-111718464D01*
X135941190Y-111691897D01*
X136070865Y-111608454D01*
X136157859Y-111481134D01*
X136188464Y-111330000D01*
X136188464Y-108650000D01*
X136161897Y-108508810D01*
X136078454Y-108379135D01*
X136051547Y-108360750D01*
X137990000Y-108360750D01*
X137990000Y-108501309D01*
X138086673Y-108734698D01*
X138265301Y-108913327D01*
X138498690Y-109010000D01*
X138591250Y-109010000D01*
X138750000Y-108851250D01*
X138750000Y-108202000D01*
X138148750Y-108202000D01*
X137990000Y-108360750D01*
X136051547Y-108360750D01*
X135951134Y-108292141D01*
X135800000Y-108261536D01*
X132200000Y-108261536D01*
X132058810Y-108288103D01*
X131929135Y-108371546D01*
X131842141Y-108498866D01*
X131811536Y-108650000D01*
X127456000Y-108650000D01*
X127456000Y-93285750D01*
X135165000Y-93285750D01*
X135165000Y-93431309D01*
X135261673Y-93664698D01*
X135411536Y-93814562D01*
X135411536Y-94305000D01*
X135438103Y-94446190D01*
X135472430Y-94499536D01*
X135442141Y-94543866D01*
X135411536Y-94695000D01*
X135411536Y-95185438D01*
X135261673Y-95335302D01*
X135165000Y-95568691D01*
X135165000Y-95714250D01*
X135323750Y-95873000D01*
X136673000Y-95873000D01*
X136673000Y-95853000D01*
X136927000Y-95853000D01*
X136927000Y-95873000D01*
X136947000Y-95873000D01*
X136947000Y-96127000D01*
X136927000Y-96127000D01*
X136927000Y-96147000D01*
X136673000Y-96147000D01*
X136673000Y-96127000D01*
X135323750Y-96127000D01*
X135165000Y-96285750D01*
X135165000Y-96431309D01*
X135261673Y-96664698D01*
X135411536Y-96814562D01*
X135411536Y-97305000D01*
X135438103Y-97446190D01*
X135472430Y-97499536D01*
X135442141Y-97543866D01*
X135411536Y-97695000D01*
X135411536Y-98185438D01*
X135261673Y-98335302D01*
X135165000Y-98568691D01*
X135165000Y-98714250D01*
X135323750Y-98873000D01*
X136673000Y-98873000D01*
X136673000Y-98853000D01*
X136927000Y-98853000D01*
X136927000Y-98873000D01*
X136947000Y-98873000D01*
X136947000Y-99127000D01*
X136927000Y-99127000D01*
X136927000Y-99147000D01*
X136673000Y-99147000D01*
X136673000Y-99127000D01*
X135323750Y-99127000D01*
X135165000Y-99285750D01*
X135165000Y-99431309D01*
X135261673Y-99664698D01*
X135411536Y-99814562D01*
X135411536Y-100305000D01*
X135438103Y-100446190D01*
X135472430Y-100499536D01*
X135442141Y-100543866D01*
X135411536Y-100695000D01*
X135411536Y-101185438D01*
X135261673Y-101335302D01*
X135165000Y-101568691D01*
X135165000Y-101714250D01*
X135323750Y-101873000D01*
X136673000Y-101873000D01*
X136673000Y-101853000D01*
X136927000Y-101853000D01*
X136927000Y-101873000D01*
X138276250Y-101873000D01*
X138435000Y-101714250D01*
X138435000Y-101611172D01*
X138604835Y-101611320D01*
X138855222Y-101507863D01*
X139046957Y-101316461D01*
X139095859Y-101198691D01*
X141540000Y-101198691D01*
X141540000Y-101339250D01*
X141698750Y-101498000D01*
X142300000Y-101498000D01*
X142300000Y-100848750D01*
X142141250Y-100690000D01*
X142048690Y-100690000D01*
X141815301Y-100786673D01*
X141636673Y-100965302D01*
X141540000Y-101198691D01*
X139095859Y-101198691D01*
X139150852Y-101066256D01*
X139150870Y-101045619D01*
X139170519Y-101045636D01*
X139420906Y-100942179D01*
X139612641Y-100750777D01*
X139660716Y-100635000D01*
X144165000Y-100635000D01*
X144165000Y-100727002D01*
X144192761Y-100727002D01*
X143310000Y-101609764D01*
X143310000Y-101497998D01*
X143151252Y-101497998D01*
X143310000Y-101339250D01*
X143310000Y-101198691D01*
X143213327Y-100965302D01*
X143034699Y-100786673D01*
X142801310Y-100690000D01*
X142708750Y-100690000D01*
X142550000Y-100848750D01*
X142550000Y-101498000D01*
X142572000Y-101498000D01*
X142572000Y-101752000D01*
X142550000Y-101752000D01*
X142550000Y-101772000D01*
X142300000Y-101772000D01*
X142300000Y-101752000D01*
X141698750Y-101752000D01*
X141540000Y-101910750D01*
X141540000Y-102051309D01*
X141636673Y-102284698D01*
X141786536Y-102434562D01*
X141786536Y-102822018D01*
X141664748Y-102872339D01*
X141473013Y-103063741D01*
X141369118Y-103313946D01*
X141368882Y-103584865D01*
X141472339Y-103835252D01*
X141663741Y-104026987D01*
X141774392Y-104072934D01*
X141291826Y-104555500D01*
X139028381Y-104555500D01*
X139035252Y-104552661D01*
X139226987Y-104361259D01*
X139330882Y-104111054D01*
X139331118Y-103840135D01*
X139227661Y-103589748D01*
X139036259Y-103398013D01*
X138993481Y-103380250D01*
X139060252Y-103352661D01*
X139251987Y-103161259D01*
X139355882Y-102911054D01*
X139356118Y-102640135D01*
X139252661Y-102389748D01*
X139061259Y-102198013D01*
X138811054Y-102094118D01*
X138540135Y-102093882D01*
X138329970Y-102180720D01*
X138276250Y-102127000D01*
X136927000Y-102127000D01*
X136927000Y-102147000D01*
X136673000Y-102147000D01*
X136673000Y-102127000D01*
X135323750Y-102127000D01*
X135165000Y-102285750D01*
X135165000Y-102431309D01*
X135261673Y-102664698D01*
X135411536Y-102814562D01*
X135411536Y-103305000D01*
X135438103Y-103446190D01*
X135472430Y-103499536D01*
X135442141Y-103543866D01*
X135411536Y-103695000D01*
X135411536Y-104305000D01*
X135438103Y-104446190D01*
X135472430Y-104499536D01*
X135442141Y-104543866D01*
X135411536Y-104695000D01*
X135411536Y-105305000D01*
X135438103Y-105446190D01*
X135472430Y-105499536D01*
X135442141Y-105543866D01*
X135411536Y-105695000D01*
X135411536Y-106305000D01*
X135438103Y-106446190D01*
X135472430Y-106499536D01*
X135442141Y-106543866D01*
X135411536Y-106695000D01*
X135411536Y-107305000D01*
X135438103Y-107446190D01*
X135521546Y-107575865D01*
X135648866Y-107662859D01*
X135800000Y-107693464D01*
X136775043Y-107693464D01*
X136915789Y-107834210D01*
X137025910Y-107907790D01*
X137080597Y-107944331D01*
X137275000Y-107983000D01*
X139022000Y-107983000D01*
X139022000Y-108202000D01*
X139000000Y-108202000D01*
X139000000Y-108851250D01*
X139158750Y-109010000D01*
X139251310Y-109010000D01*
X139484699Y-108913327D01*
X139663327Y-108734698D01*
X139760000Y-108501309D01*
X139760000Y-108360750D01*
X139601252Y-108202002D01*
X139760000Y-108202002D01*
X139760000Y-108102339D01*
X139888946Y-108155882D01*
X140159865Y-108156118D01*
X140410252Y-108052661D01*
X140601987Y-107861259D01*
X140705882Y-107611054D01*
X140706118Y-107340135D01*
X140639504Y-107178916D01*
X143660422Y-104157999D01*
X143925001Y-104157999D01*
X144119404Y-104119330D01*
X144251563Y-104031024D01*
X144359865Y-104031118D01*
X144610252Y-103927661D01*
X144801987Y-103736259D01*
X144905882Y-103486054D01*
X144906118Y-103215135D01*
X144903535Y-103208885D01*
X144976670Y-103135750D01*
X145315000Y-103135750D01*
X145315000Y-103876309D01*
X145411673Y-104109698D01*
X145590301Y-104288327D01*
X145823690Y-104385000D01*
X146354250Y-104385000D01*
X146513000Y-104226250D01*
X146513000Y-102977000D01*
X146767000Y-102977000D01*
X146767000Y-104226250D01*
X146925750Y-104385000D01*
X147456310Y-104385000D01*
X147689699Y-104288327D01*
X147868327Y-104109698D01*
X147965000Y-103876309D01*
X147965000Y-103135750D01*
X148365000Y-103135750D01*
X148365000Y-103826309D01*
X148461673Y-104059698D01*
X148640301Y-104238327D01*
X148873690Y-104335000D01*
X149714250Y-104335000D01*
X149873000Y-104176250D01*
X149873000Y-102977000D01*
X150127000Y-102977000D01*
X150127000Y-104176250D01*
X150285750Y-104335000D01*
X151126310Y-104335000D01*
X151359699Y-104238327D01*
X151538327Y-104059698D01*
X151635000Y-103826309D01*
X151635000Y-103135750D01*
X151476250Y-102977000D01*
X150127000Y-102977000D01*
X149873000Y-102977000D01*
X148523750Y-102977000D01*
X148365000Y-103135750D01*
X147965000Y-103135750D01*
X147806250Y-102977000D01*
X146767000Y-102977000D01*
X146513000Y-102977000D01*
X145473750Y-102977000D01*
X145315000Y-103135750D01*
X144976670Y-103135750D01*
X145431585Y-102680835D01*
X145473750Y-102723000D01*
X146513000Y-102723000D01*
X146513000Y-102703000D01*
X146767000Y-102703000D01*
X146767000Y-102723000D01*
X147806250Y-102723000D01*
X147965000Y-102564250D01*
X147965000Y-102421503D01*
X148108728Y-102421628D01*
X148359115Y-102318171D01*
X148365000Y-102312296D01*
X148365000Y-102564250D01*
X148523750Y-102723000D01*
X149873000Y-102723000D01*
X149873000Y-101523750D01*
X150127000Y-101523750D01*
X150127000Y-102723000D01*
X151476250Y-102723000D01*
X151635000Y-102564250D01*
X151635000Y-101873691D01*
X151538327Y-101640302D01*
X151359699Y-101461673D01*
X151126310Y-101365000D01*
X150285750Y-101365000D01*
X150127000Y-101523750D01*
X149873000Y-101523750D01*
X149714250Y-101365000D01*
X148873690Y-101365000D01*
X148640301Y-101461673D01*
X148608594Y-101493380D01*
X148565385Y-101388806D01*
X148742707Y-101388960D01*
X148993094Y-101285503D01*
X149184829Y-101094101D01*
X149288724Y-100843896D01*
X149288960Y-100572977D01*
X149185503Y-100322590D01*
X148994101Y-100130855D01*
X148743896Y-100026960D01*
X148723259Y-100026942D01*
X148723276Y-100007293D01*
X148620883Y-99759481D01*
X148674925Y-99737151D01*
X148866660Y-99545749D01*
X148970555Y-99295544D01*
X148970791Y-99024625D01*
X148867334Y-98774238D01*
X148675932Y-98582503D01*
X148425727Y-98478608D01*
X148408480Y-98478593D01*
X148328827Y-98285816D01*
X148137425Y-98094081D01*
X147965000Y-98022483D01*
X147965000Y-97435750D01*
X148365000Y-97435750D01*
X148365000Y-98126309D01*
X148461673Y-98359698D01*
X148640301Y-98538327D01*
X148873690Y-98635000D01*
X149714250Y-98635000D01*
X149873000Y-98476250D01*
X149873000Y-97277000D01*
X150127000Y-97277000D01*
X150127000Y-98476250D01*
X150285750Y-98635000D01*
X151126310Y-98635000D01*
X151359699Y-98538327D01*
X151538327Y-98359698D01*
X151635000Y-98126309D01*
X151635000Y-97435750D01*
X151476250Y-97277000D01*
X150127000Y-97277000D01*
X149873000Y-97277000D01*
X148523750Y-97277000D01*
X148365000Y-97435750D01*
X147965000Y-97435750D01*
X147806250Y-97277000D01*
X146767000Y-97277000D01*
X146767000Y-97297000D01*
X146513000Y-97297000D01*
X146513000Y-97277000D01*
X145473750Y-97277000D01*
X145315000Y-97435750D01*
X145315000Y-97609764D01*
X145165118Y-97459882D01*
X145009071Y-97355614D01*
X144825000Y-97319000D01*
X144530185Y-97319000D01*
X144610000Y-97126309D01*
X144610000Y-96985750D01*
X144451250Y-96827000D01*
X143850000Y-96827000D01*
X143850000Y-96847000D01*
X143600000Y-96847000D01*
X143600000Y-96827000D01*
X142998750Y-96827000D01*
X142840000Y-96985750D01*
X142840000Y-97126309D01*
X142847309Y-97143954D01*
X142765135Y-97143882D01*
X142514748Y-97247339D01*
X142323013Y-97438741D01*
X142219118Y-97688946D01*
X142218882Y-97959865D01*
X142303641Y-98165000D01*
X141780322Y-98165000D01*
X139889013Y-96273691D01*
X142840000Y-96273691D01*
X142840000Y-96414250D01*
X142998750Y-96573000D01*
X143600000Y-96573000D01*
X143600000Y-95923750D01*
X143850000Y-95923750D01*
X143850000Y-96573000D01*
X144451250Y-96573000D01*
X144610000Y-96414250D01*
X144610000Y-96273691D01*
X144547868Y-96123691D01*
X145315000Y-96123691D01*
X145315000Y-96864250D01*
X145473750Y-97023000D01*
X146513000Y-97023000D01*
X146513000Y-95773750D01*
X146767000Y-95773750D01*
X146767000Y-97023000D01*
X147806250Y-97023000D01*
X147965000Y-96864250D01*
X147965000Y-96173691D01*
X148365000Y-96173691D01*
X148365000Y-96864250D01*
X148523750Y-97023000D01*
X149873000Y-97023000D01*
X149873000Y-95823750D01*
X150127000Y-95823750D01*
X150127000Y-97023000D01*
X151476250Y-97023000D01*
X151635000Y-96864250D01*
X151635000Y-96173691D01*
X151538327Y-95940302D01*
X151359699Y-95761673D01*
X151126310Y-95665000D01*
X150285750Y-95665000D01*
X150127000Y-95823750D01*
X149873000Y-95823750D01*
X149714250Y-95665000D01*
X148873690Y-95665000D01*
X148640301Y-95761673D01*
X148461673Y-95940302D01*
X148365000Y-96173691D01*
X147965000Y-96173691D01*
X147965000Y-96123691D01*
X147868327Y-95890302D01*
X147689699Y-95711673D01*
X147456310Y-95615000D01*
X146925750Y-95615000D01*
X146767000Y-95773750D01*
X146513000Y-95773750D01*
X146354250Y-95615000D01*
X145823690Y-95615000D01*
X145590301Y-95711673D01*
X145411673Y-95890302D01*
X145315000Y-96123691D01*
X144547868Y-96123691D01*
X144513327Y-96040302D01*
X144334699Y-95861673D01*
X144101310Y-95765000D01*
X144008750Y-95765000D01*
X143850000Y-95923750D01*
X143600000Y-95923750D01*
X143441250Y-95765000D01*
X143348690Y-95765000D01*
X143115301Y-95861673D01*
X142936673Y-96040302D01*
X142840000Y-96273691D01*
X139889013Y-96273691D01*
X138554713Y-94939391D01*
X138554713Y-94662311D01*
X138520877Y-94492208D01*
X138424522Y-94348002D01*
X138266710Y-94190190D01*
X138236646Y-94170102D01*
X138188464Y-94137908D01*
X138188464Y-93814562D01*
X138338327Y-93664698D01*
X138435000Y-93431309D01*
X138435000Y-93285750D01*
X138276250Y-93127000D01*
X136927000Y-93127000D01*
X136927000Y-93147000D01*
X136673000Y-93147000D01*
X136673000Y-93127000D01*
X135323750Y-93127000D01*
X135165000Y-93285750D01*
X127456000Y-93285750D01*
X127456000Y-92568691D01*
X135165000Y-92568691D01*
X135165000Y-92714250D01*
X135323750Y-92873000D01*
X136673000Y-92873000D01*
X136673000Y-92218750D01*
X136927000Y-92218750D01*
X136927000Y-92873000D01*
X138276250Y-92873000D01*
X138435000Y-92714250D01*
X138435000Y-92568691D01*
X138338327Y-92335302D01*
X138159699Y-92156673D01*
X137926310Y-92060000D01*
X137085750Y-92060000D01*
X136927000Y-92218750D01*
X136673000Y-92218750D01*
X136514250Y-92060000D01*
X135673690Y-92060000D01*
X135440301Y-92156673D01*
X135261673Y-92335302D01*
X135165000Y-92568691D01*
X127456000Y-92568691D01*
X127456000Y-88670000D01*
X131811536Y-88670000D01*
X131811536Y-91350000D01*
X131838103Y-91491190D01*
X131921546Y-91620865D01*
X132048866Y-91707859D01*
X132200000Y-91738464D01*
X135800000Y-91738464D01*
X135941190Y-91711897D01*
X136070865Y-91628454D01*
X136157859Y-91501134D01*
X136188464Y-91350000D01*
X136188464Y-88670000D01*
X136161897Y-88528810D01*
X136078454Y-88399135D01*
X135951134Y-88312141D01*
X135800000Y-88281536D01*
X132200000Y-88281536D01*
X132058810Y-88308103D01*
X131929135Y-88391546D01*
X131842141Y-88518866D01*
X131811536Y-88670000D01*
X127456000Y-88670000D01*
X127456000Y-87956000D01*
X139866573Y-87956000D01*
X152044000Y-95749554D01*
X152044000Y-95749554D01*
G37*
X152044000Y-95749554D02*
X152044000Y-104250446D01*
X139866573Y-112044000D01*
X127456000Y-112044000D01*
X127456000Y-108650000D01*
X131811536Y-108650000D01*
X131811536Y-111330000D01*
X131838103Y-111471190D01*
X131921546Y-111600865D01*
X132048866Y-111687859D01*
X132200000Y-111718464D01*
X135800000Y-111718464D01*
X135941190Y-111691897D01*
X136070865Y-111608454D01*
X136157859Y-111481134D01*
X136188464Y-111330000D01*
X136188464Y-108650000D01*
X136161897Y-108508810D01*
X136078454Y-108379135D01*
X136051547Y-108360750D01*
X137990000Y-108360750D01*
X137990000Y-108501309D01*
X138086673Y-108734698D01*
X138265301Y-108913327D01*
X138498690Y-109010000D01*
X138591250Y-109010000D01*
X138750000Y-108851250D01*
X138750000Y-108202000D01*
X138148750Y-108202000D01*
X137990000Y-108360750D01*
X136051547Y-108360750D01*
X135951134Y-108292141D01*
X135800000Y-108261536D01*
X132200000Y-108261536D01*
X132058810Y-108288103D01*
X131929135Y-108371546D01*
X131842141Y-108498866D01*
X131811536Y-108650000D01*
X127456000Y-108650000D01*
X127456000Y-93285750D01*
X135165000Y-93285750D01*
X135165000Y-93431309D01*
X135261673Y-93664698D01*
X135411536Y-93814562D01*
X135411536Y-94305000D01*
X135438103Y-94446190D01*
X135472430Y-94499536D01*
X135442141Y-94543866D01*
X135411536Y-94695000D01*
X135411536Y-95185438D01*
X135261673Y-95335302D01*
X135165000Y-95568691D01*
X135165000Y-95714250D01*
X135323750Y-95873000D01*
X136673000Y-95873000D01*
X136673000Y-95853000D01*
X136927000Y-95853000D01*
X136927000Y-95873000D01*
X136947000Y-95873000D01*
X136947000Y-96127000D01*
X136927000Y-96127000D01*
X136927000Y-96147000D01*
X136673000Y-96147000D01*
X136673000Y-96127000D01*
X135323750Y-96127000D01*
X135165000Y-96285750D01*
X135165000Y-96431309D01*
X135261673Y-96664698D01*
X135411536Y-96814562D01*
X135411536Y-97305000D01*
X135438103Y-97446190D01*
X135472430Y-97499536D01*
X135442141Y-97543866D01*
X135411536Y-97695000D01*
X135411536Y-98185438D01*
X135261673Y-98335302D01*
X135165000Y-98568691D01*
X135165000Y-98714250D01*
X135323750Y-98873000D01*
X136673000Y-98873000D01*
X136673000Y-98853000D01*
X136927000Y-98853000D01*
X136927000Y-98873000D01*
X136947000Y-98873000D01*
X136947000Y-99127000D01*
X136927000Y-99127000D01*
X136927000Y-99147000D01*
X136673000Y-99147000D01*
X136673000Y-99127000D01*
X135323750Y-99127000D01*
X135165000Y-99285750D01*
X135165000Y-99431309D01*
X135261673Y-99664698D01*
X135411536Y-99814562D01*
X135411536Y-100305000D01*
X135438103Y-100446190D01*
X135472430Y-100499536D01*
X135442141Y-100543866D01*
X135411536Y-100695000D01*
X135411536Y-101185438D01*
X135261673Y-101335302D01*
X135165000Y-101568691D01*
X135165000Y-101714250D01*
X135323750Y-101873000D01*
X136673000Y-101873000D01*
X136673000Y-101853000D01*
X136927000Y-101853000D01*
X136927000Y-101873000D01*
X138276250Y-101873000D01*
X138435000Y-101714250D01*
X138435000Y-101611172D01*
X138604835Y-101611320D01*
X138855222Y-101507863D01*
X139046957Y-101316461D01*
X139095859Y-101198691D01*
X141540000Y-101198691D01*
X141540000Y-101339250D01*
X141698750Y-101498000D01*
X142300000Y-101498000D01*
X142300000Y-100848750D01*
X142141250Y-100690000D01*
X142048690Y-100690000D01*
X141815301Y-100786673D01*
X141636673Y-100965302D01*
X141540000Y-101198691D01*
X139095859Y-101198691D01*
X139150852Y-101066256D01*
X139150870Y-101045619D01*
X139170519Y-101045636D01*
X139420906Y-100942179D01*
X139612641Y-100750777D01*
X139660716Y-100635000D01*
X144165000Y-100635000D01*
X144165000Y-100727002D01*
X144192761Y-100727002D01*
X143310000Y-101609764D01*
X143310000Y-101497998D01*
X143151252Y-101497998D01*
X143310000Y-101339250D01*
X143310000Y-101198691D01*
X143213327Y-100965302D01*
X143034699Y-100786673D01*
X142801310Y-100690000D01*
X142708750Y-100690000D01*
X142550000Y-100848750D01*
X142550000Y-101498000D01*
X142572000Y-101498000D01*
X142572000Y-101752000D01*
X142550000Y-101752000D01*
X142550000Y-101772000D01*
X142300000Y-101772000D01*
X142300000Y-101752000D01*
X141698750Y-101752000D01*
X141540000Y-101910750D01*
X141540000Y-102051309D01*
X141636673Y-102284698D01*
X141786536Y-102434562D01*
X141786536Y-102822018D01*
X141664748Y-102872339D01*
X141473013Y-103063741D01*
X141369118Y-103313946D01*
X141368882Y-103584865D01*
X141472339Y-103835252D01*
X141663741Y-104026987D01*
X141774392Y-104072934D01*
X141291826Y-104555500D01*
X139028381Y-104555500D01*
X139035252Y-104552661D01*
X139226987Y-104361259D01*
X139330882Y-104111054D01*
X139331118Y-103840135D01*
X139227661Y-103589748D01*
X139036259Y-103398013D01*
X138993481Y-103380250D01*
X139060252Y-103352661D01*
X139251987Y-103161259D01*
X139355882Y-102911054D01*
X139356118Y-102640135D01*
X139252661Y-102389748D01*
X139061259Y-102198013D01*
X138811054Y-102094118D01*
X138540135Y-102093882D01*
X138329970Y-102180720D01*
X138276250Y-102127000D01*
X136927000Y-102127000D01*
X136927000Y-102147000D01*
X136673000Y-102147000D01*
X136673000Y-102127000D01*
X135323750Y-102127000D01*
X135165000Y-102285750D01*
X135165000Y-102431309D01*
X135261673Y-102664698D01*
X135411536Y-102814562D01*
X135411536Y-103305000D01*
X135438103Y-103446190D01*
X135472430Y-103499536D01*
X135442141Y-103543866D01*
X135411536Y-103695000D01*
X135411536Y-104305000D01*
X135438103Y-104446190D01*
X135472430Y-104499536D01*
X135442141Y-104543866D01*
X135411536Y-104695000D01*
X135411536Y-105305000D01*
X135438103Y-105446190D01*
X135472430Y-105499536D01*
X135442141Y-105543866D01*
X135411536Y-105695000D01*
X135411536Y-106305000D01*
X135438103Y-106446190D01*
X135472430Y-106499536D01*
X135442141Y-106543866D01*
X135411536Y-106695000D01*
X135411536Y-107305000D01*
X135438103Y-107446190D01*
X135521546Y-107575865D01*
X135648866Y-107662859D01*
X135800000Y-107693464D01*
X136775043Y-107693464D01*
X136915789Y-107834210D01*
X137025910Y-107907790D01*
X137080597Y-107944331D01*
X137275000Y-107983000D01*
X139022000Y-107983000D01*
X139022000Y-108202000D01*
X139000000Y-108202000D01*
X139000000Y-108851250D01*
X139158750Y-109010000D01*
X139251310Y-109010000D01*
X139484699Y-108913327D01*
X139663327Y-108734698D01*
X139760000Y-108501309D01*
X139760000Y-108360750D01*
X139601252Y-108202002D01*
X139760000Y-108202002D01*
X139760000Y-108102339D01*
X139888946Y-108155882D01*
X140159865Y-108156118D01*
X140410252Y-108052661D01*
X140601987Y-107861259D01*
X140705882Y-107611054D01*
X140706118Y-107340135D01*
X140639504Y-107178916D01*
X143660422Y-104157999D01*
X143925001Y-104157999D01*
X144119404Y-104119330D01*
X144251563Y-104031024D01*
X144359865Y-104031118D01*
X144610252Y-103927661D01*
X144801987Y-103736259D01*
X144905882Y-103486054D01*
X144906118Y-103215135D01*
X144903535Y-103208885D01*
X144976670Y-103135750D01*
X145315000Y-103135750D01*
X145315000Y-103876309D01*
X145411673Y-104109698D01*
X145590301Y-104288327D01*
X145823690Y-104385000D01*
X146354250Y-104385000D01*
X146513000Y-104226250D01*
X146513000Y-102977000D01*
X146767000Y-102977000D01*
X146767000Y-104226250D01*
X146925750Y-104385000D01*
X147456310Y-104385000D01*
X147689699Y-104288327D01*
X147868327Y-104109698D01*
X147965000Y-103876309D01*
X147965000Y-103135750D01*
X148365000Y-103135750D01*
X148365000Y-103826309D01*
X148461673Y-104059698D01*
X148640301Y-104238327D01*
X148873690Y-104335000D01*
X149714250Y-104335000D01*
X149873000Y-104176250D01*
X149873000Y-102977000D01*
X150127000Y-102977000D01*
X150127000Y-104176250D01*
X150285750Y-104335000D01*
X151126310Y-104335000D01*
X151359699Y-104238327D01*
X151538327Y-104059698D01*
X151635000Y-103826309D01*
X151635000Y-103135750D01*
X151476250Y-102977000D01*
X150127000Y-102977000D01*
X149873000Y-102977000D01*
X148523750Y-102977000D01*
X148365000Y-103135750D01*
X147965000Y-103135750D01*
X147806250Y-102977000D01*
X146767000Y-102977000D01*
X146513000Y-102977000D01*
X145473750Y-102977000D01*
X145315000Y-103135750D01*
X144976670Y-103135750D01*
X145431585Y-102680835D01*
X145473750Y-102723000D01*
X146513000Y-102723000D01*
X146513000Y-102703000D01*
X146767000Y-102703000D01*
X146767000Y-102723000D01*
X147806250Y-102723000D01*
X147965000Y-102564250D01*
X147965000Y-102421503D01*
X148108728Y-102421628D01*
X148359115Y-102318171D01*
X148365000Y-102312296D01*
X148365000Y-102564250D01*
X148523750Y-102723000D01*
X149873000Y-102723000D01*
X149873000Y-101523750D01*
X150127000Y-101523750D01*
X150127000Y-102723000D01*
X151476250Y-102723000D01*
X151635000Y-102564250D01*
X151635000Y-101873691D01*
X151538327Y-101640302D01*
X151359699Y-101461673D01*
X151126310Y-101365000D01*
X150285750Y-101365000D01*
X150127000Y-101523750D01*
X149873000Y-101523750D01*
X149714250Y-101365000D01*
X148873690Y-101365000D01*
X148640301Y-101461673D01*
X148608594Y-101493380D01*
X148565385Y-101388806D01*
X148742707Y-101388960D01*
X148993094Y-101285503D01*
X149184829Y-101094101D01*
X149288724Y-100843896D01*
X149288960Y-100572977D01*
X149185503Y-100322590D01*
X148994101Y-100130855D01*
X148743896Y-100026960D01*
X148723259Y-100026942D01*
X148723276Y-100007293D01*
X148620883Y-99759481D01*
X148674925Y-99737151D01*
X148866660Y-99545749D01*
X148970555Y-99295544D01*
X148970791Y-99024625D01*
X148867334Y-98774238D01*
X148675932Y-98582503D01*
X148425727Y-98478608D01*
X148408480Y-98478593D01*
X148328827Y-98285816D01*
X148137425Y-98094081D01*
X147965000Y-98022483D01*
X147965000Y-97435750D01*
X148365000Y-97435750D01*
X148365000Y-98126309D01*
X148461673Y-98359698D01*
X148640301Y-98538327D01*
X148873690Y-98635000D01*
X149714250Y-98635000D01*
X149873000Y-98476250D01*
X149873000Y-97277000D01*
X150127000Y-97277000D01*
X150127000Y-98476250D01*
X150285750Y-98635000D01*
X151126310Y-98635000D01*
X151359699Y-98538327D01*
X151538327Y-98359698D01*
X151635000Y-98126309D01*
X151635000Y-97435750D01*
X151476250Y-97277000D01*
X150127000Y-97277000D01*
X149873000Y-97277000D01*
X148523750Y-97277000D01*
X148365000Y-97435750D01*
X147965000Y-97435750D01*
X147806250Y-97277000D01*
X146767000Y-97277000D01*
X146767000Y-97297000D01*
X146513000Y-97297000D01*
X146513000Y-97277000D01*
X145473750Y-97277000D01*
X145315000Y-97435750D01*
X145315000Y-97609764D01*
X145165118Y-97459882D01*
X145009071Y-97355614D01*
X144825000Y-97319000D01*
X144530185Y-97319000D01*
X144610000Y-97126309D01*
X144610000Y-96985750D01*
X144451250Y-96827000D01*
X143850000Y-96827000D01*
X143850000Y-96847000D01*
X143600000Y-96847000D01*
X143600000Y-96827000D01*
X142998750Y-96827000D01*
X142840000Y-96985750D01*
X142840000Y-97126309D01*
X142847309Y-97143954D01*
X142765135Y-97143882D01*
X142514748Y-97247339D01*
X142323013Y-97438741D01*
X142219118Y-97688946D01*
X142218882Y-97959865D01*
X142303641Y-98165000D01*
X141780322Y-98165000D01*
X139889013Y-96273691D01*
X142840000Y-96273691D01*
X142840000Y-96414250D01*
X142998750Y-96573000D01*
X143600000Y-96573000D01*
X143600000Y-95923750D01*
X143850000Y-95923750D01*
X143850000Y-96573000D01*
X144451250Y-96573000D01*
X144610000Y-96414250D01*
X144610000Y-96273691D01*
X144547868Y-96123691D01*
X145315000Y-96123691D01*
X145315000Y-96864250D01*
X145473750Y-97023000D01*
X146513000Y-97023000D01*
X146513000Y-95773750D01*
X146767000Y-95773750D01*
X146767000Y-97023000D01*
X147806250Y-97023000D01*
X147965000Y-96864250D01*
X147965000Y-96173691D01*
X148365000Y-96173691D01*
X148365000Y-96864250D01*
X148523750Y-97023000D01*
X149873000Y-97023000D01*
X149873000Y-95823750D01*
X150127000Y-95823750D01*
X150127000Y-97023000D01*
X151476250Y-97023000D01*
X151635000Y-96864250D01*
X151635000Y-96173691D01*
X151538327Y-95940302D01*
X151359699Y-95761673D01*
X151126310Y-95665000D01*
X150285750Y-95665000D01*
X150127000Y-95823750D01*
X149873000Y-95823750D01*
X149714250Y-95665000D01*
X148873690Y-95665000D01*
X148640301Y-95761673D01*
X148461673Y-95940302D01*
X148365000Y-96173691D01*
X147965000Y-96173691D01*
X147965000Y-96123691D01*
X147868327Y-95890302D01*
X147689699Y-95711673D01*
X147456310Y-95615000D01*
X146925750Y-95615000D01*
X146767000Y-95773750D01*
X146513000Y-95773750D01*
X146354250Y-95615000D01*
X145823690Y-95615000D01*
X145590301Y-95711673D01*
X145411673Y-95890302D01*
X145315000Y-96123691D01*
X144547868Y-96123691D01*
X144513327Y-96040302D01*
X144334699Y-95861673D01*
X144101310Y-95765000D01*
X144008750Y-95765000D01*
X143850000Y-95923750D01*
X143600000Y-95923750D01*
X143441250Y-95765000D01*
X143348690Y-95765000D01*
X143115301Y-95861673D01*
X142936673Y-96040302D01*
X142840000Y-96273691D01*
X139889013Y-96273691D01*
X138554713Y-94939391D01*
X138554713Y-94662311D01*
X138520877Y-94492208D01*
X138424522Y-94348002D01*
X138266710Y-94190190D01*
X138236646Y-94170102D01*
X138188464Y-94137908D01*
X138188464Y-93814562D01*
X138338327Y-93664698D01*
X138435000Y-93431309D01*
X138435000Y-93285750D01*
X138276250Y-93127000D01*
X136927000Y-93127000D01*
X136927000Y-93147000D01*
X136673000Y-93147000D01*
X136673000Y-93127000D01*
X135323750Y-93127000D01*
X135165000Y-93285750D01*
X127456000Y-93285750D01*
X127456000Y-92568691D01*
X135165000Y-92568691D01*
X135165000Y-92714250D01*
X135323750Y-92873000D01*
X136673000Y-92873000D01*
X136673000Y-92218750D01*
X136927000Y-92218750D01*
X136927000Y-92873000D01*
X138276250Y-92873000D01*
X138435000Y-92714250D01*
X138435000Y-92568691D01*
X138338327Y-92335302D01*
X138159699Y-92156673D01*
X137926310Y-92060000D01*
X137085750Y-92060000D01*
X136927000Y-92218750D01*
X136673000Y-92218750D01*
X136514250Y-92060000D01*
X135673690Y-92060000D01*
X135440301Y-92156673D01*
X135261673Y-92335302D01*
X135165000Y-92568691D01*
X127456000Y-92568691D01*
X127456000Y-88670000D01*
X131811536Y-88670000D01*
X131811536Y-91350000D01*
X131838103Y-91491190D01*
X131921546Y-91620865D01*
X132048866Y-91707859D01*
X132200000Y-91738464D01*
X135800000Y-91738464D01*
X135941190Y-91711897D01*
X136070865Y-91628454D01*
X136157859Y-91501134D01*
X136188464Y-91350000D01*
X136188464Y-88670000D01*
X136161897Y-88528810D01*
X136078454Y-88399135D01*
X135951134Y-88312141D01*
X135800000Y-88281536D01*
X132200000Y-88281536D01*
X132058810Y-88308103D01*
X131929135Y-88391546D01*
X131842141Y-88518866D01*
X131811536Y-88670000D01*
X127456000Y-88670000D01*
X127456000Y-87956000D01*
X139866573Y-87956000D01*
X152044000Y-95749554D01*
G36*
X141124093Y-99304809D02*
X141214176Y-99365000D01*
X139980322Y-99365000D01*
X138554713Y-97939391D01*
X138554713Y-97662311D01*
X138520877Y-97492208D01*
X138424522Y-97348002D01*
X138266710Y-97190190D01*
X138197758Y-97144118D01*
X138188464Y-97137908D01*
X138188464Y-96814562D01*
X138338327Y-96664698D01*
X138380988Y-96561704D01*
X141124093Y-99304809D01*
X141124093Y-99304809D01*
G37*
X141124093Y-99304809D02*
X141214176Y-99365000D01*
X139980322Y-99365000D01*
X138554713Y-97939391D01*
X138554713Y-97662311D01*
X138520877Y-97492208D01*
X138424522Y-97348002D01*
X138266710Y-97190190D01*
X138197758Y-97144118D01*
X138188464Y-97137908D01*
X138188464Y-96814562D01*
X138338327Y-96664698D01*
X138380988Y-96561704D01*
X141124093Y-99304809D01*
M02*
