%TF.GenerationSoftware,KiCad,Pcbnew,4.0.7*%
%TF.CreationDate,2018-04-08T16:57:24+02:00*%
%TF.ProjectId,HDMI to CSI,48444D4920746F204353492E6B696361,rev?*%
%TF.FileFunction,Legend,Bot*%
%FSLAX46Y46*%
G04 Gerber Fmt 4.6, Leading zero omitted, Abs format (unit mm)*
G04 Created by KiCad (PCBNEW 4.0.7) date 04/08/18 16:57:24*
%MOMM*%
%LPD*%
G01*
G04 APERTURE LIST*
%ADD10C,0.150000*%
%ADD11C,0.300000*%
G04 APERTURE END LIST*
D10*
D11*
X144714286Y-95403571D02*
X144714286Y-93903571D01*
X144714286Y-95332143D02*
X144857143Y-95403571D01*
X145142857Y-95403571D01*
X145285715Y-95332143D01*
X145357143Y-95260714D01*
X145428572Y-95117857D01*
X145428572Y-94689286D01*
X145357143Y-94546429D01*
X145285715Y-94475000D01*
X145142857Y-94403571D01*
X144857143Y-94403571D01*
X144714286Y-94475000D01*
X143428572Y-95332143D02*
X143571429Y-95403571D01*
X143857143Y-95403571D01*
X144000000Y-95332143D01*
X144071429Y-95189286D01*
X144071429Y-94617857D01*
X144000000Y-94475000D01*
X143857143Y-94403571D01*
X143571429Y-94403571D01*
X143428572Y-94475000D01*
X143357143Y-94617857D01*
X143357143Y-94760714D01*
X144071429Y-94903571D01*
X142785715Y-95332143D02*
X142642858Y-95403571D01*
X142357143Y-95403571D01*
X142214286Y-95332143D01*
X142142858Y-95189286D01*
X142142858Y-95117857D01*
X142214286Y-94975000D01*
X142357143Y-94903571D01*
X142571429Y-94903571D01*
X142714286Y-94832143D01*
X142785715Y-94689286D01*
X142785715Y-94617857D01*
X142714286Y-94475000D01*
X142571429Y-94403571D01*
X142357143Y-94403571D01*
X142214286Y-94475000D01*
X141500000Y-95403571D02*
X141500000Y-94403571D01*
X141500000Y-93903571D02*
X141571429Y-93975000D01*
X141500000Y-94046429D01*
X141428572Y-93975000D01*
X141500000Y-93903571D01*
X141500000Y-94046429D01*
X140142857Y-94403571D02*
X140142857Y-95617857D01*
X140214286Y-95760714D01*
X140285714Y-95832143D01*
X140428571Y-95903571D01*
X140642857Y-95903571D01*
X140785714Y-95832143D01*
X140142857Y-95332143D02*
X140285714Y-95403571D01*
X140571428Y-95403571D01*
X140714286Y-95332143D01*
X140785714Y-95260714D01*
X140857143Y-95117857D01*
X140857143Y-94689286D01*
X140785714Y-94546429D01*
X140714286Y-94475000D01*
X140571428Y-94403571D01*
X140285714Y-94403571D01*
X140142857Y-94475000D01*
X139428571Y-94403571D02*
X139428571Y-95403571D01*
X139428571Y-94546429D02*
X139357143Y-94475000D01*
X139214285Y-94403571D01*
X139000000Y-94403571D01*
X138857143Y-94475000D01*
X138785714Y-94617857D01*
X138785714Y-95403571D01*
X137500000Y-95332143D02*
X137642857Y-95403571D01*
X137928571Y-95403571D01*
X138071428Y-95332143D01*
X138142857Y-95189286D01*
X138142857Y-94617857D01*
X138071428Y-94475000D01*
X137928571Y-94403571D01*
X137642857Y-94403571D01*
X137500000Y-94475000D01*
X137428571Y-94617857D01*
X137428571Y-94760714D01*
X138142857Y-94903571D01*
X136142857Y-95403571D02*
X136142857Y-93903571D01*
X136142857Y-95332143D02*
X136285714Y-95403571D01*
X136571428Y-95403571D01*
X136714286Y-95332143D01*
X136785714Y-95260714D01*
X136857143Y-95117857D01*
X136857143Y-94689286D01*
X136785714Y-94546429D01*
X136714286Y-94475000D01*
X136571428Y-94403571D01*
X136285714Y-94403571D01*
X136142857Y-94475000D01*
X134285714Y-95403571D02*
X134285714Y-93903571D01*
X134285714Y-94475000D02*
X134142857Y-94403571D01*
X133857143Y-94403571D01*
X133714286Y-94475000D01*
X133642857Y-94546429D01*
X133571428Y-94689286D01*
X133571428Y-95117857D01*
X133642857Y-95260714D01*
X133714286Y-95332143D01*
X133857143Y-95403571D01*
X134142857Y-95403571D01*
X134285714Y-95332143D01*
X133071428Y-94403571D02*
X132714285Y-95403571D01*
X132357143Y-94403571D02*
X132714285Y-95403571D01*
X132857143Y-95760714D01*
X132928571Y-95832143D01*
X133071428Y-95903571D01*
X148000000Y-97953571D02*
X148000000Y-96453571D01*
X147500000Y-97525000D01*
X147000000Y-96453571D01*
X147000000Y-97953571D01*
X146285714Y-97953571D02*
X146285714Y-96953571D01*
X146285714Y-96453571D02*
X146357143Y-96525000D01*
X146285714Y-96596429D01*
X146214286Y-96525000D01*
X146285714Y-96453571D01*
X146285714Y-96596429D01*
X145571428Y-97953571D02*
X145571428Y-96953571D01*
X145571428Y-97239286D02*
X145500000Y-97096429D01*
X145428571Y-97025000D01*
X145285714Y-96953571D01*
X145142857Y-96953571D01*
X144428571Y-97953571D02*
X144571429Y-97882143D01*
X144642857Y-97810714D01*
X144714286Y-97667857D01*
X144714286Y-97239286D01*
X144642857Y-97096429D01*
X144571429Y-97025000D01*
X144428571Y-96953571D01*
X144214286Y-96953571D01*
X144071429Y-97025000D01*
X144000000Y-97096429D01*
X143928571Y-97239286D01*
X143928571Y-97667857D01*
X144000000Y-97810714D01*
X144071429Y-97882143D01*
X144214286Y-97953571D01*
X144428571Y-97953571D01*
X143357143Y-97882143D02*
X143214286Y-97953571D01*
X142928571Y-97953571D01*
X142785714Y-97882143D01*
X142714286Y-97739286D01*
X142714286Y-97667857D01*
X142785714Y-97525000D01*
X142928571Y-97453571D01*
X143142857Y-97453571D01*
X143285714Y-97382143D01*
X143357143Y-97239286D01*
X143357143Y-97167857D01*
X143285714Y-97025000D01*
X143142857Y-96953571D01*
X142928571Y-96953571D01*
X142785714Y-97025000D01*
X141857142Y-97953571D02*
X142000000Y-97882143D01*
X142071428Y-97739286D01*
X142071428Y-96453571D01*
X140642857Y-97953571D02*
X140642857Y-97167857D01*
X140714286Y-97025000D01*
X140857143Y-96953571D01*
X141142857Y-96953571D01*
X141285714Y-97025000D01*
X140642857Y-97882143D02*
X140785714Y-97953571D01*
X141142857Y-97953571D01*
X141285714Y-97882143D01*
X141357143Y-97739286D01*
X141357143Y-97596429D01*
X141285714Y-97453571D01*
X141142857Y-97382143D01*
X140785714Y-97382143D01*
X140642857Y-97310714D01*
X140071428Y-96953571D02*
X139714285Y-97953571D01*
X139357143Y-96953571D01*
X136928571Y-97953571D02*
X137642857Y-97953571D01*
X137642857Y-96453571D01*
X135785714Y-97953571D02*
X135785714Y-97167857D01*
X135857143Y-97025000D01*
X136000000Y-96953571D01*
X136285714Y-96953571D01*
X136428571Y-97025000D01*
X135785714Y-97882143D02*
X135928571Y-97953571D01*
X136285714Y-97953571D01*
X136428571Y-97882143D01*
X136500000Y-97739286D01*
X136500000Y-97596429D01*
X136428571Y-97453571D01*
X136285714Y-97382143D01*
X135928571Y-97382143D01*
X135785714Y-97310714D01*
X135071428Y-97953571D02*
X135071428Y-96453571D01*
X134928571Y-97382143D02*
X134500000Y-97953571D01*
X134500000Y-96953571D02*
X135071428Y-97525000D01*
X133642856Y-97953571D02*
X133785714Y-97882143D01*
X133857142Y-97810714D01*
X133928571Y-97667857D01*
X133928571Y-97239286D01*
X133857142Y-97096429D01*
X133785714Y-97025000D01*
X133642856Y-96953571D01*
X133428571Y-96953571D01*
X133285714Y-97025000D01*
X133214285Y-97096429D01*
X133142856Y-97239286D01*
X133142856Y-97667857D01*
X133214285Y-97810714D01*
X133285714Y-97882143D01*
X133428571Y-97953571D01*
X133642856Y-97953571D01*
X132714285Y-96953571D02*
X132142856Y-96953571D01*
X132499999Y-96453571D02*
X132499999Y-97739286D01*
X132428571Y-97882143D01*
X132285713Y-97953571D01*
X132142856Y-97953571D01*
X130999999Y-97953571D02*
X130999999Y-97167857D01*
X131071428Y-97025000D01*
X131214285Y-96953571D01*
X131499999Y-96953571D01*
X131642856Y-97025000D01*
X130999999Y-97882143D02*
X131142856Y-97953571D01*
X131499999Y-97953571D01*
X131642856Y-97882143D01*
X131714285Y-97739286D01*
X131714285Y-97596429D01*
X131642856Y-97453571D01*
X131499999Y-97382143D01*
X131142856Y-97382143D01*
X130999999Y-97310714D01*
D10*
X152500000Y-104500000D02*
X140000000Y-112500000D01*
X152500000Y-95500000D02*
X152500000Y-104500000D01*
X140000000Y-87500000D02*
X152500000Y-95500000D01*
X127000000Y-87500000D02*
X140000000Y-87500000D01*
X127000000Y-112500000D02*
X140000000Y-112500000D01*
X127000000Y-87500000D02*
X127000000Y-112500000D01*
M02*
