%TF.GenerationSoftware,KiCad,Pcbnew,4.0.7*%
%TF.CreationDate,2018-04-08T16:57:24+02:00*%
%TF.ProjectId,HDMI to CSI,48444D4920746F204353492E6B696361,rev?*%
%TF.FileFunction,Copper,L2,Bot,Signal*%
%FSLAX46Y46*%
G04 Gerber Fmt 4.6, Leading zero omitted, Abs format (unit mm)*
G04 Created by KiCad (PCBNEW 4.0.7) date 04/08/18 16:57:24*
%MOMM*%
%LPD*%
G01*
G04 APERTURE LIST*
%ADD10C,0.150000*%
%ADD11C,0.600000*%
%ADD12C,0.254000*%
%ADD13C,0.200000*%
%ADD14C,0.127000*%
G04 APERTURE END LIST*
D10*
X152500000Y-104500000D02*
X140000000Y-112500000D01*
X152500000Y-95500000D02*
X152500000Y-104500000D01*
X140000000Y-87500000D02*
X152500000Y-95500000D01*
X127000000Y-87500000D02*
X140000000Y-87500000D01*
X127000000Y-112500000D02*
X140000000Y-112500000D01*
X127000000Y-87500000D02*
X127000000Y-112500000D01*
D11*
X140025000Y-107475000D03*
X140075000Y-105625000D03*
X142050000Y-103450000D03*
X144225000Y-103350000D03*
X142900000Y-97825000D03*
X135000000Y-93000000D03*
X148850000Y-99850000D03*
X135225000Y-99000000D03*
X139950000Y-98825000D03*
X148042158Y-100142158D03*
X139035654Y-100364518D03*
X148607842Y-100707842D03*
X138469970Y-100930202D03*
X147751166Y-98671068D03*
X138675000Y-102775000D03*
X148289673Y-99159490D03*
X138650000Y-103975000D03*
X147973863Y-101740510D03*
X138575000Y-105950000D03*
D12*
X134275000Y-106550000D02*
X135200000Y-107475000D01*
X135200000Y-107475000D02*
X140025000Y-107475000D01*
X134275000Y-98575000D02*
X134275000Y-106550000D01*
X135025000Y-97825000D02*
X134275000Y-98575000D01*
X142900000Y-97825000D02*
X135025000Y-97825000D01*
X140075000Y-105625000D02*
X142050000Y-103650000D01*
X142050000Y-103650000D02*
X142050000Y-103450000D01*
X142050000Y-103450000D02*
X144125000Y-103450000D01*
X144125000Y-103450000D02*
X144225000Y-103350000D01*
D13*
X139950000Y-98825000D02*
X135400000Y-98825000D01*
X135400000Y-98825000D02*
X135225000Y-99000000D01*
X135125000Y-99000000D02*
X135225000Y-99000000D01*
X139950000Y-98825000D02*
X139525736Y-98825000D01*
D14*
X148042158Y-100476619D02*
X148042158Y-100142158D01*
X139035654Y-100364518D02*
X139274339Y-100603203D01*
X139274339Y-100603203D02*
X147915574Y-100603203D01*
X147915574Y-100603203D02*
X148042158Y-100476619D01*
X138469970Y-100930202D02*
X148051021Y-100930202D01*
X148273381Y-100707842D02*
X148607842Y-100707842D01*
X148051021Y-100930202D02*
X148273381Y-100707842D01*
X147451167Y-98971067D02*
X147751166Y-98671068D01*
X147001245Y-99420989D02*
X147451167Y-98971067D01*
X138594786Y-99420989D02*
X147001245Y-99420989D01*
X137645989Y-100369786D02*
X138594786Y-99420989D01*
X137645989Y-101745989D02*
X137645989Y-100369786D01*
X138675000Y-102775000D02*
X137645989Y-101745989D01*
X138700000Y-99675000D02*
X147774163Y-99675000D01*
X147774163Y-99675000D02*
X148289673Y-99159490D01*
X137900000Y-100475000D02*
X138700000Y-99675000D01*
X137900000Y-101300000D02*
X137900000Y-100475000D01*
X139325000Y-102725000D02*
X137900000Y-101300000D01*
X139325000Y-103050000D02*
X139325000Y-102725000D01*
X138949999Y-103425001D02*
X139325000Y-103050000D01*
X138650000Y-103975000D02*
X138949999Y-103675001D01*
X138949999Y-103675001D02*
X138949999Y-103425001D01*
X148289673Y-99222031D02*
X148289673Y-99159490D01*
X147673864Y-102040509D02*
X147973863Y-101740510D01*
X147414373Y-102300000D02*
X147673864Y-102040509D01*
X142225000Y-102300000D02*
X147414373Y-102300000D01*
X138575000Y-105950000D02*
X142225000Y-102300000D01*
D12*
G36*
X152044000Y-95749554D02*
X152044000Y-104250446D01*
X139866573Y-112044000D01*
X127456000Y-112044000D01*
X127456000Y-98575000D01*
X133767000Y-98575000D01*
X133767000Y-106550000D01*
X133805669Y-106744403D01*
X133915790Y-106909210D01*
X134840790Y-107834211D01*
X135005597Y-107944331D01*
X135200000Y-107983000D01*
X139569874Y-107983000D01*
X139638741Y-108051987D01*
X139888946Y-108155882D01*
X140159865Y-108156118D01*
X140410252Y-108052661D01*
X140601987Y-107861259D01*
X140705882Y-107611054D01*
X140706118Y-107340135D01*
X140602661Y-107089748D01*
X140411259Y-106898013D01*
X140161054Y-106794118D01*
X139890135Y-106793882D01*
X139639748Y-106897339D01*
X139569966Y-106967000D01*
X135410421Y-106967000D01*
X134783000Y-106339580D01*
X134783000Y-100369786D01*
X137201489Y-100369786D01*
X137201489Y-101745989D01*
X137235325Y-101916092D01*
X137328019Y-102054819D01*
X137331680Y-102060298D01*
X137994045Y-102722663D01*
X137993882Y-102909865D01*
X138097339Y-103160252D01*
X138288741Y-103351987D01*
X138331519Y-103369750D01*
X138264748Y-103397339D01*
X138073013Y-103588741D01*
X137969118Y-103838946D01*
X137968882Y-104109865D01*
X138072339Y-104360252D01*
X138263741Y-104551987D01*
X138513946Y-104655882D01*
X138784865Y-104656118D01*
X139035252Y-104552661D01*
X139226987Y-104361259D01*
X139330882Y-104111054D01*
X139331075Y-103889386D01*
X139360664Y-103845103D01*
X139394499Y-103675001D01*
X139394499Y-103609119D01*
X139639309Y-103364309D01*
X139735665Y-103220102D01*
X139769500Y-103050000D01*
X139769500Y-102725000D01*
X139735664Y-102554897D01*
X139639309Y-102410691D01*
X138771199Y-101542581D01*
X138855222Y-101507863D01*
X138988615Y-101374702D01*
X147388384Y-101374702D01*
X147292981Y-101604456D01*
X147292817Y-101792938D01*
X147230255Y-101855500D01*
X142225000Y-101855500D01*
X142054898Y-101889335D01*
X141910691Y-101985691D01*
X138627337Y-105269045D01*
X138440135Y-105268882D01*
X138189748Y-105372339D01*
X137998013Y-105563741D01*
X137894118Y-105813946D01*
X137893882Y-106084865D01*
X137997339Y-106335252D01*
X138188741Y-106526987D01*
X138438946Y-106630882D01*
X138709865Y-106631118D01*
X138960252Y-106527661D01*
X139151987Y-106336259D01*
X139255882Y-106086054D01*
X139256046Y-105897572D01*
X139393882Y-105759736D01*
X139393882Y-105759865D01*
X139497339Y-106010252D01*
X139688741Y-106201987D01*
X139938946Y-106305882D01*
X140209865Y-106306118D01*
X140460252Y-106202661D01*
X140651987Y-106011259D01*
X140755882Y-105761054D01*
X140755968Y-105662452D01*
X142359430Y-104058990D01*
X142435252Y-104027661D01*
X142505034Y-103958000D01*
X143913428Y-103958000D01*
X144088946Y-104030882D01*
X144359865Y-104031118D01*
X144610252Y-103927661D01*
X144801987Y-103736259D01*
X144905882Y-103486054D01*
X144906118Y-103215135D01*
X144802661Y-102964748D01*
X144611259Y-102773013D01*
X144542593Y-102744500D01*
X147414373Y-102744500D01*
X147584476Y-102710664D01*
X147728682Y-102614309D01*
X147921526Y-102421465D01*
X148108728Y-102421628D01*
X148359115Y-102318171D01*
X148550850Y-102126769D01*
X148654745Y-101876564D01*
X148654981Y-101605645D01*
X148565385Y-101388806D01*
X148742707Y-101388960D01*
X148993094Y-101285503D01*
X149184829Y-101094101D01*
X149288724Y-100843896D01*
X149288960Y-100572977D01*
X149185503Y-100322590D01*
X148994101Y-100130855D01*
X148743896Y-100026960D01*
X148723259Y-100026942D01*
X148723276Y-100007293D01*
X148620883Y-99759481D01*
X148674925Y-99737151D01*
X148866660Y-99545749D01*
X148970555Y-99295544D01*
X148970791Y-99024625D01*
X148867334Y-98774238D01*
X148675932Y-98582503D01*
X148425727Y-98478608D01*
X148408480Y-98478593D01*
X148328827Y-98285816D01*
X148137425Y-98094081D01*
X147887220Y-97990186D01*
X147616301Y-97989950D01*
X147365914Y-98093407D01*
X147174179Y-98284809D01*
X147070284Y-98535014D01*
X147070120Y-98723496D01*
X146817127Y-98976489D01*
X138594786Y-98976489D01*
X138424684Y-99010324D01*
X138280477Y-99106680D01*
X137331680Y-100055477D01*
X137235325Y-100199683D01*
X137201489Y-100369786D01*
X134783000Y-100369786D01*
X134783000Y-98785420D01*
X135235420Y-98333000D01*
X142444874Y-98333000D01*
X142513741Y-98401987D01*
X142763946Y-98505882D01*
X143034865Y-98506118D01*
X143285252Y-98402661D01*
X143476987Y-98211259D01*
X143580882Y-97961054D01*
X143581118Y-97690135D01*
X143477661Y-97439748D01*
X143286259Y-97248013D01*
X143036054Y-97144118D01*
X142765135Y-97143882D01*
X142514748Y-97247339D01*
X142444966Y-97317000D01*
X135025000Y-97317000D01*
X134830596Y-97355669D01*
X134665790Y-97465790D01*
X133915790Y-98215790D01*
X133805669Y-98380597D01*
X133767000Y-98575000D01*
X127456000Y-98575000D01*
X127456000Y-87956000D01*
X139866573Y-87956000D01*
X152044000Y-95749554D01*
X152044000Y-95749554D01*
G37*
X152044000Y-95749554D02*
X152044000Y-104250446D01*
X139866573Y-112044000D01*
X127456000Y-112044000D01*
X127456000Y-98575000D01*
X133767000Y-98575000D01*
X133767000Y-106550000D01*
X133805669Y-106744403D01*
X133915790Y-106909210D01*
X134840790Y-107834211D01*
X135005597Y-107944331D01*
X135200000Y-107983000D01*
X139569874Y-107983000D01*
X139638741Y-108051987D01*
X139888946Y-108155882D01*
X140159865Y-108156118D01*
X140410252Y-108052661D01*
X140601987Y-107861259D01*
X140705882Y-107611054D01*
X140706118Y-107340135D01*
X140602661Y-107089748D01*
X140411259Y-106898013D01*
X140161054Y-106794118D01*
X139890135Y-106793882D01*
X139639748Y-106897339D01*
X139569966Y-106967000D01*
X135410421Y-106967000D01*
X134783000Y-106339580D01*
X134783000Y-100369786D01*
X137201489Y-100369786D01*
X137201489Y-101745989D01*
X137235325Y-101916092D01*
X137328019Y-102054819D01*
X137331680Y-102060298D01*
X137994045Y-102722663D01*
X137993882Y-102909865D01*
X138097339Y-103160252D01*
X138288741Y-103351987D01*
X138331519Y-103369750D01*
X138264748Y-103397339D01*
X138073013Y-103588741D01*
X137969118Y-103838946D01*
X137968882Y-104109865D01*
X138072339Y-104360252D01*
X138263741Y-104551987D01*
X138513946Y-104655882D01*
X138784865Y-104656118D01*
X139035252Y-104552661D01*
X139226987Y-104361259D01*
X139330882Y-104111054D01*
X139331075Y-103889386D01*
X139360664Y-103845103D01*
X139394499Y-103675001D01*
X139394499Y-103609119D01*
X139639309Y-103364309D01*
X139735665Y-103220102D01*
X139769500Y-103050000D01*
X139769500Y-102725000D01*
X139735664Y-102554897D01*
X139639309Y-102410691D01*
X138771199Y-101542581D01*
X138855222Y-101507863D01*
X138988615Y-101374702D01*
X147388384Y-101374702D01*
X147292981Y-101604456D01*
X147292817Y-101792938D01*
X147230255Y-101855500D01*
X142225000Y-101855500D01*
X142054898Y-101889335D01*
X141910691Y-101985691D01*
X138627337Y-105269045D01*
X138440135Y-105268882D01*
X138189748Y-105372339D01*
X137998013Y-105563741D01*
X137894118Y-105813946D01*
X137893882Y-106084865D01*
X137997339Y-106335252D01*
X138188741Y-106526987D01*
X138438946Y-106630882D01*
X138709865Y-106631118D01*
X138960252Y-106527661D01*
X139151987Y-106336259D01*
X139255882Y-106086054D01*
X139256046Y-105897572D01*
X139393882Y-105759736D01*
X139393882Y-105759865D01*
X139497339Y-106010252D01*
X139688741Y-106201987D01*
X139938946Y-106305882D01*
X140209865Y-106306118D01*
X140460252Y-106202661D01*
X140651987Y-106011259D01*
X140755882Y-105761054D01*
X140755968Y-105662452D01*
X142359430Y-104058990D01*
X142435252Y-104027661D01*
X142505034Y-103958000D01*
X143913428Y-103958000D01*
X144088946Y-104030882D01*
X144359865Y-104031118D01*
X144610252Y-103927661D01*
X144801987Y-103736259D01*
X144905882Y-103486054D01*
X144906118Y-103215135D01*
X144802661Y-102964748D01*
X144611259Y-102773013D01*
X144542593Y-102744500D01*
X147414373Y-102744500D01*
X147584476Y-102710664D01*
X147728682Y-102614309D01*
X147921526Y-102421465D01*
X148108728Y-102421628D01*
X148359115Y-102318171D01*
X148550850Y-102126769D01*
X148654745Y-101876564D01*
X148654981Y-101605645D01*
X148565385Y-101388806D01*
X148742707Y-101388960D01*
X148993094Y-101285503D01*
X149184829Y-101094101D01*
X149288724Y-100843896D01*
X149288960Y-100572977D01*
X149185503Y-100322590D01*
X148994101Y-100130855D01*
X148743896Y-100026960D01*
X148723259Y-100026942D01*
X148723276Y-100007293D01*
X148620883Y-99759481D01*
X148674925Y-99737151D01*
X148866660Y-99545749D01*
X148970555Y-99295544D01*
X148970791Y-99024625D01*
X148867334Y-98774238D01*
X148675932Y-98582503D01*
X148425727Y-98478608D01*
X148408480Y-98478593D01*
X148328827Y-98285816D01*
X148137425Y-98094081D01*
X147887220Y-97990186D01*
X147616301Y-97989950D01*
X147365914Y-98093407D01*
X147174179Y-98284809D01*
X147070284Y-98535014D01*
X147070120Y-98723496D01*
X146817127Y-98976489D01*
X138594786Y-98976489D01*
X138424684Y-99010324D01*
X138280477Y-99106680D01*
X137331680Y-100055477D01*
X137235325Y-100199683D01*
X137201489Y-100369786D01*
X134783000Y-100369786D01*
X134783000Y-98785420D01*
X135235420Y-98333000D01*
X142444874Y-98333000D01*
X142513741Y-98401987D01*
X142763946Y-98505882D01*
X143034865Y-98506118D01*
X143285252Y-98402661D01*
X143476987Y-98211259D01*
X143580882Y-97961054D01*
X143581118Y-97690135D01*
X143477661Y-97439748D01*
X143286259Y-97248013D01*
X143036054Y-97144118D01*
X142765135Y-97143882D01*
X142514748Y-97247339D01*
X142444966Y-97317000D01*
X135025000Y-97317000D01*
X134830596Y-97355669D01*
X134665790Y-97465790D01*
X133915790Y-98215790D01*
X133805669Y-98380597D01*
X133767000Y-98575000D01*
X127456000Y-98575000D01*
X127456000Y-87956000D01*
X139866573Y-87956000D01*
X152044000Y-95749554D01*
M02*
